<mxfile host="app.diagrams.net" agent="Mozilla/5.0 (Windows NT 10.0; Win64; x64) AppleWebKit/537.36 (KHTML, like Gecko) Chrome/131.0.0.0 Safari/537.36" version="25.0.3">
  <diagram id="prtHgNgQTEPvFCAcTncT" name="UCW ARCH">
    <mxGraphModel dx="1290" dy="1691" grid="1" gridSize="10" guides="1" tooltips="1" connect="1" arrows="1" fold="1" page="1" pageScale="1" pageWidth="827" pageHeight="1169" math="0" shadow="0">
      <root>
        <mxCell id="0" />
        <mxCell id="1" parent="0" />
        <mxCell id="wx3ZmEcS0zUKgwl92ref-1" value="Region = Virginia" style="points=[[0,0],[0.25,0],[0.5,0],[0.75,0],[1,0],[1,0.25],[1,0.5],[1,0.75],[1,1],[0.75,1],[0.5,1],[0.25,1],[0,1],[0,0.75],[0,0.5],[0,0.25]];outlineConnect=0;gradientColor=none;html=1;whiteSpace=wrap;fontSize=12;fontStyle=0;container=1;pointerEvents=0;collapsible=0;recursiveResize=0;shape=mxgraph.aws4.group;grIcon=mxgraph.aws4.group_region;strokeColor=#00A4A6;fillColor=none;verticalAlign=top;align=left;spacingLeft=30;fontColor=#147EBA;dashed=1;" vertex="1" parent="1">
          <mxGeometry x="878" y="46" width="1162" height="914" as="geometry" />
        </mxCell>
        <mxCell id="wx3ZmEcS0zUKgwl92ref-2" value="Availability zone = Virginia - 1a" style="sketch=0;outlineConnect=0;gradientColor=none;html=1;whiteSpace=wrap;fontSize=12;fontStyle=0;shape=mxgraph.aws4.group;grIcon=mxgraph.aws4.group_availability_zone;strokeColor=#545B64;fillColor=none;verticalAlign=top;align=left;spacingLeft=30;fontColor=#545B64;dashed=1;" vertex="1" parent="wx3ZmEcS0zUKgwl92ref-1">
          <mxGeometry x="90" y="40" width="1030" height="830" as="geometry" />
        </mxCell>
        <mxCell id="wx3ZmEcS0zUKgwl92ref-3" value="Registrar VPC&amp;nbsp;" style="sketch=0;outlineConnect=0;gradientColor=none;html=1;whiteSpace=wrap;fontSize=12;fontStyle=0;shape=mxgraph.aws4.group;grIcon=mxgraph.aws4.group_vpc;strokeColor=#879196;fillColor=none;verticalAlign=top;align=left;spacingLeft=30;fontColor=#879196;dashed=0;" vertex="1" parent="wx3ZmEcS0zUKgwl92ref-1">
          <mxGeometry x="162" y="150" width="878" height="260" as="geometry" />
        </mxCell>
        <mxCell id="wx3ZmEcS0zUKgwl92ref-4" value="Data Operation Platform (Domain = HR)" style="fillColor=none;strokeColor=#5A6C86;dashed=1;verticalAlign=top;fontStyle=0;fontColor=#5A6C86;whiteSpace=wrap;html=1;" vertex="1" parent="wx3ZmEcS0zUKgwl92ref-1">
          <mxGeometry x="122" y="84" width="958" height="386" as="geometry" />
        </mxCell>
        <mxCell id="wx3ZmEcS0zUKgwl92ref-5" value="Data Analytic Platform (Domain = HR)" style="fillColor=none;strokeColor=#5A6C86;dashed=1;verticalAlign=top;fontStyle=0;fontColor=#5A6C86;whiteSpace=wrap;html=1;" vertex="1" parent="wx3ZmEcS0zUKgwl92ref-1">
          <mxGeometry x="122" y="494" width="960" height="346" as="geometry" />
        </mxCell>
        <mxCell id="wx3ZmEcS0zUKgwl92ref-6" value="Public subnet" style="points=[[0,0],[0.25,0],[0.5,0],[0.75,0],[1,0],[1,0.25],[1,0.5],[1,0.75],[1,1],[0.75,1],[0.5,1],[0.25,1],[0,1],[0,0.75],[0,0.5],[0,0.25]];outlineConnect=0;gradientColor=none;html=1;whiteSpace=wrap;fontSize=12;fontStyle=0;container=1;pointerEvents=0;collapsible=0;recursiveResize=0;shape=mxgraph.aws4.group;grIcon=mxgraph.aws4.group_security_group;grStroke=0;strokeColor=#7AA116;fillColor=#F2F6E8;verticalAlign=top;align=left;spacingLeft=30;fontColor=#248814;dashed=0;" vertex="1" parent="wx3ZmEcS0zUKgwl92ref-1">
          <mxGeometry x="202" y="182" width="358" height="210" as="geometry" />
        </mxCell>
        <mxCell id="wx3ZmEcS0zUKgwl92ref-7" value="Private subnet" style="points=[[0,0],[0.25,0],[0.5,0],[0.75,0],[1,0],[1,0.25],[1,0.5],[1,0.75],[1,1],[0.75,1],[0.5,1],[0.25,1],[0,1],[0,0.75],[0,0.5],[0,0.25]];outlineConnect=0;gradientColor=none;html=1;whiteSpace=wrap;fontSize=12;fontStyle=0;container=1;pointerEvents=0;collapsible=0;recursiveResize=0;shape=mxgraph.aws4.group;grIcon=mxgraph.aws4.group_security_group;grStroke=0;strokeColor=#00A4A6;fillColor=#E6F6F7;verticalAlign=top;align=left;spacingLeft=30;fontColor=#147EBA;dashed=0;" vertex="1" parent="wx3ZmEcS0zUKgwl92ref-1">
          <mxGeometry x="603" y="183" width="397" height="207" as="geometry" />
        </mxCell>
        <mxCell id="wx3ZmEcS0zUKgwl92ref-8" value="Amazon EC2" style="sketch=0;outlineConnect=0;fontColor=#232F3E;gradientColor=none;strokeColor=#ffffff;fillColor=#232F3E;dashed=0;verticalLabelPosition=middle;verticalAlign=bottom;align=center;html=1;whiteSpace=wrap;fontSize=10;fontStyle=1;spacing=3;shape=mxgraph.aws4.productIcon;prIcon=mxgraph.aws4.ec2;" vertex="1" parent="wx3ZmEcS0zUKgwl92ref-1">
          <mxGeometry x="339.5" y="213" width="33.5" height="63" as="geometry" />
        </mxCell>
        <mxCell id="wx3ZmEcS0zUKgwl92ref-9" value="&amp;nbsp; &amp;nbsp; &amp;nbsp; &amp;nbsp; &amp;nbsp; &amp;nbsp;WS - Application" style="sketch=0;pointerEvents=1;shadow=0;dashed=0;html=1;strokeColor=none;fillColor=#505050;labelPosition=center;verticalLabelPosition=bottom;verticalAlign=top;outlineConnect=0;align=center;shape=mxgraph.office.servers.virtual_web_server;" vertex="1" parent="wx3ZmEcS0zUKgwl92ref-1">
          <mxGeometry x="272" y="304" width="44" height="55" as="geometry" />
        </mxCell>
        <mxCell id="wx3ZmEcS0zUKgwl92ref-10" value="Amazon S3" style="sketch=0;outlineConnect=0;fontColor=#232F3E;gradientColor=none;strokeColor=#ffffff;fillColor=#232F3E;dashed=0;verticalLabelPosition=middle;verticalAlign=bottom;align=center;html=1;whiteSpace=wrap;fontSize=10;fontStyle=1;spacing=3;shape=mxgraph.aws4.productIcon;prIcon=mxgraph.aws4.s3;" vertex="1" parent="wx3ZmEcS0zUKgwl92ref-1">
          <mxGeometry x="603" y="540" width="79" height="96" as="geometry" />
        </mxCell>
        <mxCell id="wx3ZmEcS0zUKgwl92ref-11" value="&lt;font style=&quot;font-size: 10px;&quot;&gt;AWS Glue DataBrew&lt;/font&gt;" style="sketch=0;points=[[0,0,0],[0.25,0,0],[0.5,0,0],[0.75,0,0],[1,0,0],[0,1,0],[0.25,1,0],[0.5,1,0],[0.75,1,0],[1,1,0],[0,0.25,0],[0,0.5,0],[0,0.75,0],[1,0.25,0],[1,0.5,0],[1,0.75,0]];outlineConnect=0;fontColor=#232F3E;fillColor=#8C4FFF;strokeColor=#ffffff;dashed=0;verticalLabelPosition=bottom;verticalAlign=top;align=center;html=1;fontSize=12;fontStyle=0;aspect=fixed;shape=mxgraph.aws4.resourceIcon;resIcon=mxgraph.aws4.glue_databrew;" vertex="1" parent="wx3ZmEcS0zUKgwl92ref-1">
          <mxGeometry x="295" y="544" width="78" height="78" as="geometry" />
        </mxCell>
        <mxCell id="wx3ZmEcS0zUKgwl92ref-12" value="WS - Approval" style="sketch=0;pointerEvents=1;shadow=0;dashed=0;html=1;strokeColor=none;fillColor=#505050;labelPosition=center;verticalLabelPosition=bottom;verticalAlign=top;outlineConnect=0;align=center;shape=mxgraph.office.servers.virtual_web_server;" vertex="1" parent="wx3ZmEcS0zUKgwl92ref-1">
          <mxGeometry x="397" y="302.5" width="44" height="55" as="geometry" />
        </mxCell>
        <mxCell id="wx3ZmEcS0zUKgwl92ref-13" value="Amazon EC2" style="sketch=0;outlineConnect=0;fontColor=#232F3E;gradientColor=none;strokeColor=#ffffff;fillColor=#232F3E;dashed=0;verticalLabelPosition=middle;verticalAlign=bottom;align=center;html=1;whiteSpace=wrap;fontSize=10;fontStyle=1;spacing=3;shape=mxgraph.aws4.productIcon;prIcon=mxgraph.aws4.ec2;" vertex="1" parent="wx3ZmEcS0zUKgwl92ref-1">
          <mxGeometry x="732" y="233" width="28.5" height="60" as="geometry" />
        </mxCell>
        <mxCell id="wx3ZmEcS0zUKgwl92ref-14" value="GS - Approval" style="sketch=0;pointerEvents=1;shadow=0;dashed=0;html=1;strokeColor=none;fillColor=#505050;labelPosition=center;verticalLabelPosition=bottom;verticalAlign=top;outlineConnect=0;align=center;shape=mxgraph.office.servers.virtual_server;" vertex="1" parent="wx3ZmEcS0zUKgwl92ref-1">
          <mxGeometry x="772" y="304" width="28" height="52" as="geometry" />
        </mxCell>
        <mxCell id="wx3ZmEcS0zUKgwl92ref-15" value="HR Shared Location" style="sketch=0;points=[[0,0,0],[0.25,0,0],[0.5,0,0],[0.75,0,0],[1,0,0],[0,1,0],[0.25,1,0],[0.5,1,0],[0.75,1,0],[1,1,0],[0,0.25,0],[0,0.5,0],[0,0.75,0],[1,0.25,0],[1,0.5,0],[1,0.75,0]];outlineConnect=0;fontColor=#232F3E;fillColor=#7AA116;strokeColor=#ffffff;dashed=0;verticalLabelPosition=bottom;verticalAlign=top;align=center;html=1;fontSize=12;fontStyle=0;aspect=fixed;shape=mxgraph.aws4.resourceIcon;resIcon=mxgraph.aws4.elastic_file_system;" vertex="1" parent="wx3ZmEcS0zUKgwl92ref-1">
          <mxGeometry x="902" y="326" width="30" height="30" as="geometry" />
        </mxCell>
        <mxCell id="wx3ZmEcS0zUKgwl92ref-16" value="Amazon Elastic File System" style="sketch=0;outlineConnect=0;fontColor=#232F3E;gradientColor=none;strokeColor=#ffffff;fillColor=#232F3E;dashed=0;verticalLabelPosition=middle;verticalAlign=bottom;align=center;html=1;whiteSpace=wrap;fontSize=10;fontStyle=1;spacing=3;shape=mxgraph.aws4.productIcon;prIcon=mxgraph.aws4.elastic_file_system;" vertex="1" parent="wx3ZmEcS0zUKgwl92ref-1">
          <mxGeometry x="902" y="224" width="30" height="80" as="geometry" />
        </mxCell>
        <mxCell id="wx3ZmEcS0zUKgwl92ref-17" value="&lt;div&gt;hr-cur-aminat&lt;/div&gt;" style="sketch=0;outlineConnect=0;fontColor=#232F3E;gradientColor=none;fillColor=#7AA116;strokeColor=none;dashed=0;verticalLabelPosition=bottom;verticalAlign=top;align=center;html=1;fontSize=12;fontStyle=0;aspect=fixed;pointerEvents=1;shape=mxgraph.aws4.bucket;" vertex="1" parent="wx3ZmEcS0zUKgwl92ref-1">
          <mxGeometry x="867" y="679.6" width="65" height="67.6" as="geometry" />
        </mxCell>
        <mxCell id="wx3ZmEcS0zUKgwl92ref-18" value="&lt;div&gt;hr-clnstr-job-aminat&lt;/div&gt;" style="sketch=0;pointerEvents=1;shadow=0;dashed=0;html=1;strokeColor=none;labelPosition=center;verticalLabelPosition=bottom;verticalAlign=top;align=center;fillColor=#505050;shape=mxgraph.mscae.oms.jobs" vertex="1" parent="wx3ZmEcS0zUKgwl92ref-1">
          <mxGeometry x="355.5" y="697.2" width="50" height="50" as="geometry" />
        </mxCell>
        <mxCell id="wx3ZmEcS0zUKgwl92ref-19" value="AWS Glue" style="sketch=0;outlineConnect=0;fontColor=#232F3E;gradientColor=none;strokeColor=#ffffff;fillColor=#232F3E;dashed=0;verticalLabelPosition=middle;verticalAlign=bottom;align=center;html=1;whiteSpace=wrap;fontSize=10;fontStyle=1;spacing=3;shape=mxgraph.aws4.productIcon;prIcon=mxgraph.aws4.glue;" vertex="1" parent="wx3ZmEcS0zUKgwl92ref-1">
          <mxGeometry x="432" y="540" width="80" height="100" as="geometry" />
        </mxCell>
        <mxCell id="wx3ZmEcS0zUKgwl92ref-20" value="&lt;div&gt;hr-trf-aminat&lt;/div&gt;" style="sketch=0;outlineConnect=0;fontColor=#232F3E;gradientColor=none;fillColor=#7AA116;strokeColor=none;dashed=0;verticalLabelPosition=bottom;verticalAlign=top;align=center;html=1;fontSize=12;fontStyle=0;aspect=fixed;pointerEvents=1;shape=mxgraph.aws4.bucket;" vertex="1" parent="wx3ZmEcS0zUKgwl92ref-1">
          <mxGeometry x="439.5" y="685.4" width="65" height="67.6" as="geometry" />
        </mxCell>
        <mxCell id="wx3ZmEcS0zUKgwl92ref-21" value="&lt;div&gt;hr-trf-aminat&lt;/div&gt;" style="sketch=0;outlineConnect=0;fontColor=#232F3E;gradientColor=none;fillColor=#7AA116;strokeColor=none;dashed=0;verticalLabelPosition=bottom;verticalAlign=top;align=center;html=1;fontSize=12;fontStyle=0;aspect=fixed;pointerEvents=1;shape=mxgraph.aws4.bucket;" vertex="1" parent="wx3ZmEcS0zUKgwl92ref-1">
          <mxGeometry x="617" y="679.6" width="65" height="67.6" as="geometry" />
        </mxCell>
        <mxCell id="wx3ZmEcS0zUKgwl92ref-22" value="hr-rwp-exp-pip-aminat" style="sketch=0;outlineConnect=0;fontColor=#232F3E;gradientColor=none;fillColor=#7AA116;strokeColor=none;dashed=0;verticalLabelPosition=bottom;verticalAlign=top;align=center;html=1;fontSize=12;fontStyle=0;aspect=fixed;pointerEvents=1;shape=mxgraph.aws4.iot_analytics_pipeline;" vertex="1" parent="wx3ZmEcS0zUKgwl92ref-1">
          <mxGeometry x="732" y="692.4" width="78" height="42" as="geometry" />
        </mxCell>
        <mxCell id="wx3ZmEcS0zUKgwl92ref-23" value="Amazon S3" style="sketch=0;outlineConnect=0;fontColor=#232F3E;gradientColor=none;strokeColor=#ffffff;fillColor=#232F3E;dashed=0;verticalLabelPosition=middle;verticalAlign=bottom;align=center;html=1;whiteSpace=wrap;fontSize=10;fontStyle=1;spacing=3;shape=mxgraph.aws4.productIcon;prIcon=mxgraph.aws4.s3;" vertex="1" parent="wx3ZmEcS0zUKgwl92ref-1">
          <mxGeometry x="852" y="533" width="80" height="100" as="geometry" />
        </mxCell>
        <mxCell id="wx3ZmEcS0zUKgwl92ref-24" value="Amazon CloudWatch" style="sketch=0;outlineConnect=0;fontColor=#232F3E;gradientColor=none;strokeColor=#ffffff;fillColor=#232F3E;dashed=0;verticalLabelPosition=middle;verticalAlign=bottom;align=center;html=1;whiteSpace=wrap;fontSize=10;fontStyle=1;spacing=3;shape=mxgraph.aws4.productIcon;prIcon=mxgraph.aws4.cloudwatch;" vertex="1" parent="wx3ZmEcS0zUKgwl92ref-1">
          <mxGeometry x="1012" y="753" width="46.75" height="81.5" as="geometry" />
        </mxCell>
        <mxCell id="wx3ZmEcS0zUKgwl92ref-25" value="" style="sketch=0;points=[[0,0,0],[0.25,0,0],[0.5,0,0],[0.75,0,0],[1,0,0],[0,1,0],[0.25,1,0],[0.5,1,0],[0.75,1,0],[1,1,0],[0,0.25,0],[0,0.5,0],[0,0.75,0],[1,0.25,0],[1,0.5,0],[1,0.75,0]];outlineConnect=0;fontColor=#232F3E;fillColor=#DD344C;strokeColor=#ffffff;dashed=0;verticalLabelPosition=bottom;verticalAlign=top;align=center;html=1;fontSize=12;fontStyle=0;aspect=fixed;shape=mxgraph.aws4.resourceIcon;resIcon=mxgraph.aws4.key_management_service;" vertex="1" parent="wx3ZmEcS0zUKgwl92ref-1">
          <mxGeometry x="1012" y="686.3" width="54.2" height="54.2" as="geometry" />
        </mxCell>
        <mxCell id="wx3ZmEcS0zUKgwl92ref-26" value="AWS Data Center" style="points=[[0,0],[0.25,0],[0.5,0],[0.75,0],[1,0],[1,0.25],[1,0.5],[1,0.75],[1,1],[0.75,1],[0.5,1],[0.25,1],[0,1],[0,0.75],[0,0.5],[0,0.25]];outlineConnect=0;gradientColor=none;html=1;whiteSpace=wrap;fontSize=12;fontStyle=0;container=1;pointerEvents=0;collapsible=0;recursiveResize=0;shape=mxgraph.aws4.group;grIcon=mxgraph.aws4.group_corporate_data_center;strokeColor=#7D8998;fillColor=none;verticalAlign=top;align=left;spacingLeft=30;fontColor=#5A6C86;dashed=0;" vertex="1" parent="1">
          <mxGeometry x="840" y="-10" width="1240" height="1010" as="geometry" />
        </mxCell>
        <mxCell id="wx3ZmEcS0zUKgwl92ref-27" value="hr-prf-job-ami&lt;div&gt;nat&lt;div&gt;&lt;br&gt;&lt;/div&gt;&lt;/div&gt;" style="sketch=0;pointerEvents=1;shadow=0;dashed=0;html=1;strokeColor=none;labelPosition=center;verticalLabelPosition=bottom;verticalAlign=top;align=center;fillColor=#505050;shape=mxgraph.mscae.oms.jobs" vertex="1" parent="wx3ZmEcS0zUKgwl92ref-26">
          <mxGeometry x="300" y="750" width="50" height="50" as="geometry" />
        </mxCell>
        <mxCell id="wx3ZmEcS0zUKgwl92ref-28" value="&lt;div&gt;hr-raw-aminat&lt;/div&gt;" style="sketch=0;outlineConnect=0;fontColor=#232F3E;gradientColor=none;fillColor=#7AA116;strokeColor=none;dashed=0;verticalLabelPosition=bottom;verticalAlign=top;align=center;html=1;fontSize=12;fontStyle=0;aspect=fixed;pointerEvents=1;shape=mxgraph.aws4.bucket;" vertex="1" parent="wx3ZmEcS0zUKgwl92ref-26">
          <mxGeometry x="210" y="741.2" width="65" height="67.6" as="geometry" />
        </mxCell>
        <mxCell id="wx3ZmEcS0zUKgwl92ref-29" value="Amazon S3" style="sketch=0;outlineConnect=0;fontColor=#232F3E;gradientColor=none;strokeColor=#ffffff;fillColor=#232F3E;dashed=0;verticalLabelPosition=middle;verticalAlign=bottom;align=center;html=1;whiteSpace=wrap;fontSize=10;fontStyle=1;spacing=3;shape=mxgraph.aws4.productIcon;prIcon=mxgraph.aws4.s3;" vertex="1" parent="wx3ZmEcS0zUKgwl92ref-26">
          <mxGeometry x="210" y="600" width="80" height="100" as="geometry" />
        </mxCell>
        <mxCell id="wx3ZmEcS0zUKgwl92ref-30" value="GS - Application" style="sketch=0;pointerEvents=1;shadow=0;dashed=0;html=1;strokeColor=none;fillColor=#505050;labelPosition=center;verticalLabelPosition=bottom;verticalAlign=top;outlineConnect=0;align=center;shape=mxgraph.office.servers.virtual_server;" vertex="1" parent="wx3ZmEcS0zUKgwl92ref-26">
          <mxGeometry x="717.5" y="360" width="32.5" height="50" as="geometry" />
        </mxCell>
        <mxCell id="wx3ZmEcS0zUKgwl92ref-31" value="Internet&#xa;gateway" style="sketch=0;outlineConnect=0;fontColor=#232F3E;gradientColor=none;strokeColor=#232F3E;fillColor=#ffffff;dashed=0;verticalLabelPosition=bottom;verticalAlign=top;align=center;html=1;fontSize=12;fontStyle=0;aspect=fixed;shape=mxgraph.aws4.resourceIcon;resIcon=mxgraph.aws4.internet_gateway;" vertex="1" parent="wx3ZmEcS0zUKgwl92ref-26">
          <mxGeometry x="175" y="317" width="50" height="50" as="geometry" />
        </mxCell>
        <mxCell id="wx3ZmEcS0zUKgwl92ref-32" style="edgeStyle=orthogonalEdgeStyle;rounded=0;orthogonalLoop=1;jettySize=auto;html=1;" edge="1" parent="wx3ZmEcS0zUKgwl92ref-26" source="wx3ZmEcS0zUKgwl92ref-33" target="wx3ZmEcS0zUKgwl92ref-29">
          <mxGeometry relative="1" as="geometry" />
        </mxCell>
        <mxCell id="wx3ZmEcS0zUKgwl92ref-33" value="S3 Endpoint" style="sketch=0;outlineConnect=0;fontColor=#232F3E;gradientColor=none;fillColor=#8C4FFF;strokeColor=none;dashed=0;verticalLabelPosition=bottom;verticalAlign=top;align=center;html=1;fontSize=12;fontStyle=0;aspect=fixed;pointerEvents=1;shape=mxgraph.aws4.endpoints;" vertex="1" parent="wx3ZmEcS0zUKgwl92ref-26">
          <mxGeometry x="600" y="453" width="41" height="41" as="geometry" />
        </mxCell>
        <mxCell id="wx3ZmEcS0zUKgwl92ref-34" value="AWS Glue" style="sketch=0;outlineConnect=0;fontColor=#232F3E;gradientColor=none;strokeColor=#ffffff;fillColor=#232F3E;dashed=0;verticalLabelPosition=middle;verticalAlign=bottom;align=center;html=1;whiteSpace=wrap;fontSize=10;fontStyle=1;spacing=3;shape=mxgraph.aws4.productIcon;prIcon=mxgraph.aws4.glue;" vertex="1" parent="wx3ZmEcS0zUKgwl92ref-26">
          <mxGeometry x="770" y="590" width="70" height="90" as="geometry" />
        </mxCell>
        <mxCell id="wx3ZmEcS0zUKgwl92ref-35" value="hr-rwp-QPC-aminat" style="sketch=0;outlineConnect=0;fontColor=#232F3E;gradientColor=none;fillColor=#7AA116;strokeColor=none;dashed=0;verticalLabelPosition=bottom;verticalAlign=top;align=center;html=1;fontSize=12;fontStyle=0;aspect=fixed;pointerEvents=1;shape=mxgraph.aws4.iot_analytics_pipeline;" vertex="1" parent="wx3ZmEcS0zUKgwl92ref-26">
          <mxGeometry x="563" y="758" width="78" height="42" as="geometry" />
        </mxCell>
        <mxCell id="wx3ZmEcS0zUKgwl92ref-36" value="" style="sketch=0;outlineConnect=0;fontColor=#232F3E;gradientColor=none;fillColor=#DD344C;strokeColor=none;dashed=0;verticalLabelPosition=bottom;verticalAlign=top;align=center;html=1;fontSize=12;fontStyle=0;aspect=fixed;pointerEvents=1;shape=mxgraph.aws4.data_encryption_key;" vertex="1" parent="wx3ZmEcS0zUKgwl92ref-26">
          <mxGeometry x="490" y="830" width="31.79" height="40" as="geometry" />
        </mxCell>
        <mxCell id="wx3ZmEcS0zUKgwl92ref-37" value="" style="sketch=0;outlineConnect=0;fontColor=#232F3E;gradientColor=none;fillColor=#DD344C;strokeColor=none;dashed=0;verticalLabelPosition=bottom;verticalAlign=top;align=center;html=1;fontSize=12;fontStyle=0;aspect=fixed;pointerEvents=1;shape=mxgraph.aws4.data_encryption_key;" vertex="1" parent="wx3ZmEcS0zUKgwl92ref-26">
          <mxGeometry x="670" y="830" width="31.79" height="40" as="geometry" />
        </mxCell>
        <mxCell id="wx3ZmEcS0zUKgwl92ref-38" value="" style="shape=table;startSize=0;container=1;collapsible=0;childLayout=tableLayout;fontSize=16;" vertex="1" parent="1">
          <mxGeometry x="840" y="1040" width="530" height="310" as="geometry" />
        </mxCell>
        <mxCell id="wx3ZmEcS0zUKgwl92ref-39" value="" style="shape=tableRow;horizontal=0;startSize=0;swimlaneHead=0;swimlaneBody=0;strokeColor=inherit;top=0;left=0;bottom=0;right=0;collapsible=0;dropTarget=0;fillColor=none;points=[[0,0.5],[1,0.5]];portConstraint=eastwest;fontSize=16;" vertex="1" parent="wx3ZmEcS0zUKgwl92ref-38">
          <mxGeometry width="530" height="40" as="geometry" />
        </mxCell>
        <mxCell id="wx3ZmEcS0zUKgwl92ref-40" value="Data Source" style="shape=partialRectangle;html=1;whiteSpace=wrap;connectable=0;strokeColor=inherit;overflow=hidden;fillColor=none;top=0;left=0;bottom=0;right=0;pointerEvents=1;fontSize=16;" vertex="1" parent="wx3ZmEcS0zUKgwl92ref-39">
          <mxGeometry width="290" height="40" as="geometry">
            <mxRectangle width="290" height="40" as="alternateBounds" />
          </mxGeometry>
        </mxCell>
        <mxCell id="wx3ZmEcS0zUKgwl92ref-41" value="Dataset" style="shape=partialRectangle;html=1;whiteSpace=wrap;connectable=0;strokeColor=inherit;overflow=hidden;fillColor=none;top=0;left=0;bottom=0;right=0;pointerEvents=1;fontSize=16;" vertex="1" parent="wx3ZmEcS0zUKgwl92ref-39">
          <mxGeometry x="290" width="240" height="40" as="geometry">
            <mxRectangle width="240" height="40" as="alternateBounds" />
          </mxGeometry>
        </mxCell>
        <mxCell id="wx3ZmEcS0zUKgwl92ref-42" value="" style="shape=tableRow;horizontal=0;startSize=0;swimlaneHead=0;swimlaneBody=0;strokeColor=inherit;top=0;left=0;bottom=0;right=0;collapsible=0;dropTarget=0;fillColor=none;points=[[0,0.5],[1,0.5]];portConstraint=eastwest;fontSize=16;" vertex="1" parent="wx3ZmEcS0zUKgwl92ref-38">
          <mxGeometry y="40" width="530" height="70" as="geometry" />
        </mxCell>
        <mxCell id="wx3ZmEcS0zUKgwl92ref-43" value="General Virtual Server - Application" style="shape=partialRectangle;html=1;whiteSpace=wrap;connectable=0;strokeColor=inherit;overflow=hidden;fillColor=none;top=0;left=0;bottom=0;right=0;pointerEvents=1;fontSize=16;" vertex="1" parent="wx3ZmEcS0zUKgwl92ref-42">
          <mxGeometry width="290" height="70" as="geometry">
            <mxRectangle width="290" height="70" as="alternateBounds" />
          </mxGeometry>
        </mxCell>
        <mxCell id="wx3ZmEcS0zUKgwl92ref-44" value="Employees, Performance clickstream,Application Approval&lt;span style=&quot;background-color: initial;&quot;&gt;&amp;nbsp;documents&lt;/span&gt;&lt;span style=&quot;background-color: initial;&quot;&gt;&amp;nbsp;&lt;/span&gt;" style="shape=partialRectangle;html=1;whiteSpace=wrap;connectable=0;strokeColor=inherit;overflow=hidden;fillColor=none;top=0;left=0;bottom=0;right=0;pointerEvents=1;fontSize=16;" vertex="1" parent="wx3ZmEcS0zUKgwl92ref-42">
          <mxGeometry x="290" width="240" height="70" as="geometry">
            <mxRectangle width="240" height="70" as="alternateBounds" />
          </mxGeometry>
        </mxCell>
        <mxCell id="wx3ZmEcS0zUKgwl92ref-45" value="" style="shape=tableRow;horizontal=0;startSize=0;swimlaneHead=0;swimlaneBody=0;strokeColor=inherit;top=0;left=0;bottom=0;right=0;collapsible=0;dropTarget=0;fillColor=none;points=[[0,0.5],[1,0.5]];portConstraint=eastwest;fontSize=16;" vertex="1" parent="wx3ZmEcS0zUKgwl92ref-38">
          <mxGeometry y="110" width="530" height="60" as="geometry" />
        </mxCell>
        <mxCell id="wx3ZmEcS0zUKgwl92ref-46" value="General Virtual Server - Approval" style="shape=partialRectangle;html=1;whiteSpace=wrap;connectable=0;strokeColor=inherit;overflow=hidden;fillColor=none;top=0;left=0;bottom=0;right=0;pointerEvents=1;fontSize=16;" vertex="1" parent="wx3ZmEcS0zUKgwl92ref-45">
          <mxGeometry width="290" height="60" as="geometry">
            <mxRectangle width="290" height="60" as="alternateBounds" />
          </mxGeometry>
        </mxCell>
        <mxCell id="wx3ZmEcS0zUKgwl92ref-47" value="Superior Approval documents" style="shape=partialRectangle;html=1;whiteSpace=wrap;connectable=0;strokeColor=inherit;overflow=hidden;fillColor=none;top=0;left=0;bottom=0;right=0;pointerEvents=1;fontSize=16;" vertex="1" parent="wx3ZmEcS0zUKgwl92ref-45">
          <mxGeometry x="290" width="240" height="60" as="geometry">
            <mxRectangle width="240" height="60" as="alternateBounds" />
          </mxGeometry>
        </mxCell>
        <mxCell id="wx3ZmEcS0zUKgwl92ref-48" style="shape=tableRow;horizontal=0;startSize=0;swimlaneHead=0;swimlaneBody=0;strokeColor=inherit;top=0;left=0;bottom=0;right=0;collapsible=0;dropTarget=0;fillColor=none;points=[[0,0.5],[1,0.5]];portConstraint=eastwest;fontSize=16;" vertex="1" parent="wx3ZmEcS0zUKgwl92ref-38">
          <mxGeometry y="170" width="530" height="70" as="geometry" />
        </mxCell>
        <mxCell id="wx3ZmEcS0zUKgwl92ref-49" value="Web Virtual Server - Application" style="shape=partialRectangle;html=1;whiteSpace=wrap;connectable=0;strokeColor=inherit;overflow=hidden;fillColor=none;top=0;left=0;bottom=0;right=0;pointerEvents=1;fontSize=16;" vertex="1" parent="wx3ZmEcS0zUKgwl92ref-48">
          <mxGeometry width="290" height="70" as="geometry">
            <mxRectangle width="290" height="70" as="alternateBounds" />
          </mxGeometry>
        </mxCell>
        <mxCell id="wx3ZmEcS0zUKgwl92ref-50" value="Employee and Equipment ClickStream,&lt;div&gt;approved partner ClickStream,&lt;/div&gt;" style="shape=partialRectangle;html=1;whiteSpace=wrap;connectable=0;strokeColor=inherit;overflow=hidden;fillColor=none;top=0;left=0;bottom=0;right=0;pointerEvents=1;fontSize=16;" vertex="1" parent="wx3ZmEcS0zUKgwl92ref-48">
          <mxGeometry x="290" width="240" height="70" as="geometry">
            <mxRectangle width="240" height="70" as="alternateBounds" />
          </mxGeometry>
        </mxCell>
        <mxCell id="wx3ZmEcS0zUKgwl92ref-51" style="shape=tableRow;horizontal=0;startSize=0;swimlaneHead=0;swimlaneBody=0;strokeColor=inherit;top=0;left=0;bottom=0;right=0;collapsible=0;dropTarget=0;fillColor=none;points=[[0,0.5],[1,0.5]];portConstraint=eastwest;fontSize=16;" vertex="1" parent="wx3ZmEcS0zUKgwl92ref-38">
          <mxGeometry y="240" width="530" height="70" as="geometry" />
        </mxCell>
        <mxCell id="wx3ZmEcS0zUKgwl92ref-52" value="Web Virtual Server - Approval" style="shape=partialRectangle;html=1;whiteSpace=wrap;connectable=0;strokeColor=inherit;overflow=hidden;fillColor=none;top=0;left=0;bottom=0;right=0;pointerEvents=1;fontSize=16;" vertex="1" parent="wx3ZmEcS0zUKgwl92ref-51">
          <mxGeometry width="290" height="70" as="geometry">
            <mxRectangle width="290" height="70" as="alternateBounds" />
          </mxGeometry>
        </mxCell>
        <mxCell id="wx3ZmEcS0zUKgwl92ref-53" value="Employee ClickStream" style="shape=partialRectangle;html=1;whiteSpace=wrap;connectable=0;strokeColor=inherit;overflow=hidden;fillColor=none;top=0;left=0;bottom=0;right=0;pointerEvents=1;fontSize=16;" vertex="1" parent="wx3ZmEcS0zUKgwl92ref-51">
          <mxGeometry x="290" width="240" height="70" as="geometry">
            <mxRectangle width="240" height="70" as="alternateBounds" />
          </mxGeometry>
        </mxCell>
        <mxCell id="wx3ZmEcS0zUKgwl92ref-54" style="edgeStyle=orthogonalEdgeStyle;rounded=0;orthogonalLoop=1;jettySize=auto;html=1;endArrow=none;endFill=0;" edge="1" parent="1" source="wx3ZmEcS0zUKgwl92ref-55" target="wx3ZmEcS0zUKgwl92ref-31">
          <mxGeometry relative="1" as="geometry" />
        </mxCell>
        <mxCell id="wx3ZmEcS0zUKgwl92ref-55" value="Internet" style="outlineConnect=0;dashed=0;verticalLabelPosition=bottom;verticalAlign=top;align=center;html=1;shape=mxgraph.aws3.internet_3;fillColor=#D2D3D3;gradientColor=none;" vertex="1" parent="1">
          <mxGeometry x="700" y="305" width="79.5" height="54" as="geometry" />
        </mxCell>
        <mxCell id="wx3ZmEcS0zUKgwl92ref-56" value="Employees(Applicants)" style="sketch=0;outlineConnect=0;fontColor=#232F3E;gradientColor=none;strokeColor=#232F3E;fillColor=#ffffff;dashed=0;verticalLabelPosition=bottom;verticalAlign=top;align=center;html=1;fontSize=12;fontStyle=0;aspect=fixed;shape=mxgraph.aws4.resourceIcon;resIcon=mxgraph.aws4.user;" vertex="1" parent="1">
          <mxGeometry x="540" y="305" width="60" height="60" as="geometry" />
        </mxCell>
        <mxCell id="wx3ZmEcS0zUKgwl92ref-57" style="edgeStyle=orthogonalEdgeStyle;rounded=0;orthogonalLoop=1;jettySize=auto;html=1;endArrow=none;endFill=0;" edge="1" parent="1" source="wx3ZmEcS0zUKgwl92ref-58" target="wx3ZmEcS0zUKgwl92ref-55">
          <mxGeometry relative="1" as="geometry" />
        </mxCell>
        <mxCell id="wx3ZmEcS0zUKgwl92ref-58" value="Data Team" style="points=[[0.35,0,0],[0.98,0.51,0],[1,0.71,0],[0.67,1,0],[0,0.795,0],[0,0.65,0]];verticalLabelPosition=bottom;sketch=0;html=1;verticalAlign=top;aspect=fixed;align=center;pointerEvents=1;shape=mxgraph.cisco19.user;fillColor=#005073;strokeColor=none;" vertex="1" parent="1">
          <mxGeometry x="550" y="430" width="50" height="50" as="geometry" />
        </mxCell>
        <mxCell id="wx3ZmEcS0zUKgwl92ref-59" style="edgeStyle=orthogonalEdgeStyle;rounded=0;orthogonalLoop=1;jettySize=auto;html=1;entryX=0;entryY=0.7;entryDx=0;entryDy=0;entryPerimeter=0;endArrow=none;endFill=0;" edge="1" parent="1">
          <mxGeometry relative="1" as="geometry">
            <mxPoint x="600" y="335" as="sourcePoint" />
            <mxPoint x="700" y="335.79999999999995" as="targetPoint" />
          </mxGeometry>
        </mxCell>
        <mxCell id="wx3ZmEcS0zUKgwl92ref-60" style="edgeStyle=orthogonalEdgeStyle;rounded=0;orthogonalLoop=1;jettySize=auto;html=1;endArrow=none;endFill=0;" edge="1" parent="1" source="wx3ZmEcS0zUKgwl92ref-31" target="wx3ZmEcS0zUKgwl92ref-9">
          <mxGeometry relative="1" as="geometry" />
        </mxCell>
        <mxCell id="wx3ZmEcS0zUKgwl92ref-61" style="edgeStyle=orthogonalEdgeStyle;rounded=0;orthogonalLoop=1;jettySize=auto;html=1;endArrow=none;endFill=0;" edge="1" parent="1" source="wx3ZmEcS0zUKgwl92ref-31" target="wx3ZmEcS0zUKgwl92ref-12">
          <mxGeometry relative="1" as="geometry">
            <Array as="points">
              <mxPoint x="1250" y="332" />
              <mxPoint x="1250" y="376" />
            </Array>
          </mxGeometry>
        </mxCell>
        <mxCell id="wx3ZmEcS0zUKgwl92ref-62" style="edgeStyle=orthogonalEdgeStyle;rounded=0;orthogonalLoop=1;jettySize=auto;html=1;endArrow=ERmany;endFill=0;" edge="1" parent="1" source="wx3ZmEcS0zUKgwl92ref-9" target="wx3ZmEcS0zUKgwl92ref-33">
          <mxGeometry relative="1" as="geometry">
            <Array as="points">
              <mxPoint x="1172" y="430" />
              <mxPoint x="1461" y="430" />
            </Array>
          </mxGeometry>
        </mxCell>
      </root>
    </mxGraphModel>
  </diagram>
</mxfile>
